<?xml version="1.0" encoding="utf-8"?>
<!-- Generator: Adobe Illustrator 16.0.3, SVG Export Plug-In . SVG Version: 6.00 Build 0)  -->
<!DOCTYPE svg PUBLIC "-//W3C//DTD SVG 1.1//EN" "http://www.w3.org/Graphics/SVG/1.1/DTD/svg11.dtd">
<svg version="1.1" id="Layer_1" xmlns="http://www.w3.org/2000/svg" xmlns:xlink="http://www.w3.org/1999/xlink" x="0px" y="0px"
	 width="80px" height="80px" viewBox="-30 -30 80 80" enable-background="new -30 -30 80 80" xml:space="preserve">
<g>
	<g>
		<path fill="#E01F4C" d="M47.679,38.192h-16.64v-7.889c3.633-0.491,6.855-2.756,8.725-6.2c2.487-0.566,4.751-2.015,6.418-4.109
			C48.001,17.716,49,14.814,49,11.806c0-4.57-2.339-8.801-6.025-11.001C42.594-6.82,36.714-12.9,29.561-12.9
			c-2.254,0-4.482,0.612-6.451,1.774c-0.606,0.358-0.815,1.146-0.446,1.76c0.358,0.611,1.146,0.811,1.756,0.451
			c1.57-0.927,3.344-1.415,5.142-1.415c5.98,0,10.855,5.338,10.862,11.902c0.008,0.483,0.274,0.925,0.708,1.142
			c3.223,1.63,5.298,5.195,5.298,9.088c0,4.908-3.324,9.16-7.728,9.888c-0.415,0.071-0.766,0.33-0.947,0.711
			c-1.383,2.853-3.87,4.792-6.715,5.29V16.318l6.322-5.814c0.524-0.48,0.563-1.296,0.08-1.817c-0.48-0.523-1.291-0.558-1.817-0.078
			l-4.585,4.219v-8.58c0-0.709-0.572-1.287-1.287-1.287c-0.708,0-1.281,0.573-1.281,1.287v15.557l-4.584-4.222
			c-0.526-0.479-1.342-0.441-1.82,0.082c-0.48,0.524-0.442,1.337,0.075,1.815l6.329,5.815v4.461
			c-3.027-0.393-5.704-2.399-7.132-5.436c-0.181-0.361-0.507-0.625-0.895-0.713c-4.271-0.897-7.364-5.026-7.364-9.811
			c0-3.77,1.901-7.178,4.957-8.902c0.409-0.23,0.662-0.665,0.653-1.135c0-0.036,0-0.07,0-0.107c0-0.019,0-0.037,0-0.061
			c0-2.679,0.793-5.208,2.286-7.313c0.407-0.579,0.27-1.382-0.305-1.79c-0.579-0.412-1.383-0.274-1.79,0.302
			c-1.706,2.403-2.651,5.25-2.75,8.261c-3.488,2.274-5.621,6.323-5.621,10.749c0,5.762,3.656,10.782,8.778,12.18
			c1.932,3.637,5.344,5.979,9.182,6.36v7.842h-0.814c-0.19-3.359-2.49-6.285-5.688-7.274c-1.007-2.133-2.956-3.687-5.249-4.19
			c-0.754-3.42-3.828-5.968-7.421-5.968c-2.765,0-5.273,1.49-6.61,3.854c-2.632,0.096-5.001,1.504-6.356,3.683
			c-0.848-2.333-3.019-4.029-5.563-4.211v-3.376c3.472-0.483,6.542-2.657,8.335-5.934c2.385-0.556,4.551-1.934,6.154-3.945
			C7.001,8.635,7.964,5.84,7.964,2.949c0-4.388-2.244-8.447-5.768-10.561C1.81-14.933-3.833-20.76-10.709-20.76
			c-2.636,0-5.173,0.852-7.332,2.459c-0.569,0.428-0.688,1.231-0.261,1.801c0.421,0.569,1.229,0.686,1.798,0.261
			c1.712-1.275,3.721-1.949,5.799-1.949c5.697,0,10.338,5.089,10.351,11.341c0,0.484,0.273,0.924,0.705,1.143
			c3.065,1.548,5.042,4.945,5.042,8.646c0,4.673-3.163,8.72-7.358,9.413c-0.409,0.068-0.765,0.327-0.948,0.712
			c-1.299,2.692-3.643,4.528-6.318,5.028V7.299l6.038-5.552c0.522-0.478,0.559-1.293,0.078-1.816
			c-0.483-0.522-1.298-0.559-1.822-0.078l-4.298,3.955v-8.09c0-0.71-0.573-1.288-1.287-1.288c-0.712,0-1.286,0.578-1.286,1.288
			v14.77l-4.294-3.956c-0.524-0.48-1.335-0.443-1.815,0.074c-0.483,0.528-0.448,1.339,0.074,1.819l6.039,5.551v4.179
			c-2.86-0.393-5.376-2.293-6.728-5.161c-0.171-0.362-0.502-0.625-0.893-0.708c-4.06-0.863-7-4.793-7-9.345
			c0-3.588,1.809-6.836,4.719-8.474c0.409-0.23,0.659-0.663,0.655-1.135c0-0.036,0-0.07-0.003-0.102c0-0.021,0-0.04,0-0.059
			c0-1.588,0.292-3.128,0.871-4.566c0.171-0.43,0.369-0.851,0.587-1.253c0.339-0.623,0.109-1.403-0.516-1.742
			c-0.623-0.339-1.403-0.111-1.742,0.514c-0.265,0.491-0.506,1.007-0.718,1.529c-0.633,1.58-0.983,3.249-1.046,4.973
			C-26.957-5.187-29-1.297-29,2.945c0,5.53,3.505,10.354,8.424,11.71c1.847,3.465,5.105,5.712,8.771,6.094v3.67
			c-1.41,0.496-2.611,1.463-3.386,2.774c-3.12,0.174-5.643,2.479-6.13,5.521c-2.303,1.021-4.014,3.047-4.643,5.47h-1.75
			c-0.71,0-1.287,0.574-1.287,1.287c0,0.708,0.573,1.287,1.287,1.287h2.816H4.11h22.222h21.347c0.712,0,1.283-0.579,1.283-1.287
			S48.391,38.192,47.679,38.192z M-23.266,38.192c0.611-1.562,1.902-2.811,3.544-3.34c0.516-0.168,0.874-0.64,0.889-1.186
			c0.066-2.193,1.838-3.915,4.034-3.915c0.085,0,0.183,0,0.305,0.015c0.548,0.038,1.064-0.277,1.278-0.783
			c0.602-1.425,1.986-2.347,3.53-2.347c1.984,0,3.658,1.546,3.814,3.52c0.049,0.631,0.549,1.134,1.181,1.18
			c0.351,0.03,0.691,0.107,1.011,0.229c0,0,0,0,0.004,0c0.058,0.023,0.117,0.046,0.176,0.073c0.011,0.003,0.026,0.008,0.037,0.02
			c0.056,0.022,0.111,0.044,0.165,0.074c0.017,0.009,0.036,0.017,0.055,0.024c0.074,0.038,0.144,0.083,0.215,0.121
			c0.037,0.022,0.078,0.046,0.112,0.068c0.026,0.02,0.055,0.039,0.082,0.061c0.043,0.024,0.082,0.058,0.126,0.085
			c0.022,0.02,0.045,0.038,0.068,0.053c0.051,0.038,0.099,0.084,0.148,0.123c0.011,0.006,0.029,0.022,0.04,0.03
			c0.124,0.113,0.246,0.235,0.354,0.365c0.008,0.008,0.019,0.022,0.03,0.03c0.048,0.061,0.092,0.114,0.137,0.175
			c0.008,0.012,0.015,0.022,0.023,0.034c0.103,0.137,0.192,0.279,0.274,0.423c0.011,0.023,0.022,0.046,0.03,0.065
			c0.029,0.057,0.059,0.109,0.083,0.17c0.007,0.02,0.019,0.047,0.032,0.069c0.03,0.076,0.062,0.152,0.089,0.229c0,0,0,0.003,0,0.006
			c0.152,0.412,0.507,0.725,0.939,0.82c0.115,0.025,0.227,0.058,0.335,0.088c0.036,0.006,0.074,0.022,0.11,0.038
			c0.074,0.022,0.148,0.05,0.217,0.075c0.04,0.023,0.082,0.038,0.122,0.054c0.067,0.03,0.129,0.061,0.19,0.092
			c0.044,0.019,0.083,0.046,0.125,0.061c0.057,0.038,0.116,0.073,0.175,0.099c0.039,0.027,0.082,0.054,0.121,0.076
			c0.055,0.038,0.11,0.08,0.164,0.115c0.04,0.03,0.078,0.053,0.114,0.083c0.055,0.041,0.104,0.08,0.156,0.129
			c0.035,0.03,0.07,0.058,0.101,0.085c0.056,0.053,0.102,0.091,0.152,0.148c0.031,0.03,0.063,0.057,0.09,0.087
			c0.055,0.058,0.108,0.118,0.164,0.183c0.019,0.023,0.04,0.046,0.059,0.073c0.07,0.08,0.135,0.176,0.198,0.263
			c0.012,0.026,0.023,0.042,0.037,0.064c0.049,0.079,0.097,0.148,0.139,0.225c0.021,0.038,0.04,0.076,0.059,0.106
			c0.036,0.069,0.066,0.127,0.097,0.198c0.019,0.038,0.036,0.08,0.055,0.118c0.026,0.065,0.055,0.126,0.078,0.189
			c0.015,0.05,0.03,0.088,0.045,0.131c0.021,0.072,0.044,0.13,0.059,0.193c0.011,0.046,0.029,0.093,0.04,0.142
			c0.015,0.064,0.03,0.13,0.042,0.193c0.007,0.054,0.019,0.096,0.029,0.142c0.003,0.027,0.003,0.05,0.007,0.064h-26.087V38.192z
			 M5.415,38.192L5.415,38.192c0-0.016-0.005-0.023-0.005-0.038c-0.016-0.153-0.035-0.305-0.058-0.458
			c0-0.008-0.004-0.015-0.004-0.03c-0.028-0.151-0.059-0.305-0.093-0.45c0-0.006-0.003-0.014-0.003-0.021
			c-0.037-0.152-0.078-0.297-0.126-0.442c-0.004-0.015-0.008-0.03-0.011-0.046c-0.048-0.136-0.097-0.281-0.152-0.41
			c-0.015-0.024-0.023-0.046-0.031-0.063c-0.055-0.137-0.114-0.262-0.177-0.396c-0.007-0.02-0.019-0.038-0.03-0.061
			c-0.066-0.129-0.133-0.252-0.202-0.381c-0.013-0.02-0.024-0.039-0.036-0.058c-0.074-0.121-0.152-0.247-0.234-0.369
			c-0.007-0.016-0.02-0.03-0.03-0.046c-0.085-0.121-0.172-0.244-0.265-0.357c-0.004-0.008-0.013-0.016-0.017-0.023
			c-0.097-0.121-0.199-0.236-0.303-0.35c0-0.005,0-0.008-0.004-0.008c-0.103-0.115-0.211-0.222-0.324-0.327
			c-0.007-0.008-0.021-0.024-0.028-0.03c-0.109-0.101-0.218-0.199-0.332-0.29c-0.015-0.012-0.03-0.022-0.045-0.039
			c-0.114-0.091-0.227-0.175-0.345-0.258c-0.019-0.017-0.034-0.027-0.053-0.038c-0.118-0.085-0.238-0.16-0.364-0.236
			c-0.019-0.017-0.038-0.027-0.058-0.038c-0.125-0.077-0.251-0.146-0.383-0.209c-0.019-0.012-0.036-0.02-0.055-0.027
			c-0.132-0.068-0.269-0.13-0.409-0.19c-0.012-0.008-0.023-0.008-0.035-0.016c-0.148-0.061-0.293-0.113-0.446-0.159c0,0,0,0,0-0.008
			c-0.004-0.009-0.011-0.022-0.019-0.039c-0.055-0.099-0.104-0.205-0.164-0.305c-0.03-0.053-0.063-0.099-0.089-0.151
			c-0.037-0.061-0.074-0.123-0.115-0.184c-0.038-0.053-0.076-0.114-0.116-0.167c-0.034-0.05-0.071-0.099-0.105-0.146
			c-0.043-0.061-0.089-0.121-0.137-0.179c-0.027-0.033-0.059-0.063-0.082-0.096c-0.108-0.137-0.223-0.255-0.339-0.38
			c-0.019-0.023-0.04-0.046-0.063-0.065c-0.059-0.057-0.116-0.114-0.179-0.17c-0.034-0.03-0.071-0.063-0.105-0.096
			c-0.059-0.05-0.118-0.103-0.177-0.148c-0.042-0.038-0.089-0.072-0.131-0.107c-0.059-0.046-0.115-0.084-0.167-0.126
			c-0.083-0.063-0.165-0.113-0.246-0.167c-0.019-0.02-0.043-0.034-0.067-0.05c0.935-1.581,2.653-2.589,4.547-2.589
			c0.116,0,0.242,0.006,0.398,0.015c0.55,0.049,1.065-0.27,1.28-0.777c0.786-1.866,2.605-3.08,4.633-3.08
			c2.604,0,4.805,2.029,5.003,4.634c0.054,0.625,0.557,1.128,1.186,1.181c1.962,0.153,3.659,1.448,4.331,3.296
			c0.144,0.414,0.502,0.728,0.936,0.818c2.369,0.51,4.129,2.551,4.327,4.943L5.415,38.192L5.415,38.192z"/>
	</g>
</g>
</svg>
