<?xml version="1.0" encoding="utf-8"?>
<!-- Generator: Adobe Illustrator 16.0.3, SVG Export Plug-In . SVG Version: 6.00 Build 0)  -->
<!DOCTYPE svg PUBLIC "-//W3C//DTD SVG 1.1//EN" "http://www.w3.org/Graphics/SVG/1.1/DTD/svg11.dtd">
<svg version="1.1" id="Layer_1" xmlns="http://www.w3.org/2000/svg" xmlns:xlink="http://www.w3.org/1999/xlink" x="0px" y="0px"
	 width="80px" height="80px" viewBox="-30 -30 80 80" enable-background="new -30 -30 80 80" xml:space="preserve">
<g>
	<g>
		<path fill="#E01F4C" d="M9.032-24.265c-0.074-0.83-0.799-1.446-1.628-1.383c-0.835,0.053-1.472,0.77-1.423,1.607
			c0.047,0.809,0.719,1.433,1.518,1.433c0.03,0,0.061,0,0.091-0.002c0.015-0.002,0.043-0.004,0.059-0.006
			C8.486-22.688,9.106-23.428,9.032-24.265z"/>
	</g>
</g>
<g>
	<g>
		<path fill="#E01F4C" d="M29.629-18.072c-0.624-0.561-1.582-0.51-2.146,0.112c-0.563,0.626-0.51,1.586,0.114,2.149
			c0.008,0.007,0.026,0.024,0.034,0.032c0.285,0.249,0.644,0.369,0.993,0.369c0.426,0,0.852-0.179,1.156-0.527
			C30.321-16.57,30.257-17.522,29.629-18.072z"/>
	</g>
</g>
<g>
	<g>
		<path fill="#E01F4C" d="M21.526-23.225c-0.769-0.336-1.658,0.01-2.001,0.774c-0.342,0.769,0.004,1.668,0.772,2.008l0.05,0.023
			c0.189,0.078,0.388,0.114,0.582,0.114c0.597,0,1.164-0.354,1.407-0.939C22.652-22.017,22.295-22.899,21.526-23.225z"/>
	</g>
</g>
<g>
	<g>
		<path fill="#E01F4C" d="M32.984-14.601c0-0.002-0.016-0.017-0.016-0.021c-0.536-0.645-1.487-0.732-2.138-0.2
			c-0.646,0.533-0.737,1.493-0.205,2.144c0.297,0.369,0.738,0.56,1.179,0.56c0.339,0,0.678-0.11,0.959-0.341
			C33.418-12.99,33.517-13.949,32.984-14.601z"/>
	</g>
</g>
<g>
	<g>
		<path fill="#E01F4C" d="M12.222-25.591h-0.016c-0.835-0.074-1.567,0.546-1.642,1.383c-0.072,0.837,0.554,1.575,1.391,1.649
			c0.046,0.004,0.092,0.006,0.137,0.006c0.776,0,1.446-0.596,1.515-1.387C13.679-24.779,13.059-25.517,12.222-25.591z"/>
	</g>
</g>
<g>
	<g>
		<path fill="#E01F4C" d="M17-24.771c-0.016-0.003-0.046-0.011-0.062-0.015c-0.813-0.198-1.636,0.305-1.833,1.121
			c-0.198,0.814,0.3,1.634,1.11,1.835c0.13,0.034,0.259,0.049,0.381,0.049c0.669,0,1.285-0.445,1.468-1.122
			C18.285-23.714,17.806-24.551,17-24.771z"/>
	</g>
</g>
<g>
	<g>
		<path fill="#E01F4C" d="M25.817-20.948c-0.019-0.013-0.038-0.024-0.053-0.036c-0.716-0.443-1.651-0.223-2.097,0.491
			c-0.441,0.711-0.225,1.644,0.479,2.09c0.255,0.164,0.54,0.242,0.825,0.242c0.487,0,0.975-0.238,1.264-0.677
			C26.704-19.537,26.518-20.482,25.817-20.948z"/>
	</g>
</g>
<g>
	<g>
		<path fill="#E01F4C" d="M38.421,6.173c-0.833-0.085-1.587,0.523-1.67,1.358l-0.004,0.038c-0.072,0.837,0.544,1.581,1.381,1.653
			c0.045,0.006,0.091,0.008,0.137,0.008c0.779,0,1.445-0.594,1.514-1.385l-1.514-0.158l1.514,0.156
			C39.862,7.008,39.254,6.259,38.421,6.173z"/>
	</g>
</g>
<g>
	<g>
		<path fill="#E01F4C" d="M36.561,15.12c-0.765-0.346-1.666-0.007-2.013,0.762l-0.019,0.045c-0.327,0.776,0.034,1.67,0.806,1.993
			c0.198,0.084,0.396,0.122,0.594,0.122c0.586,0,1.149-0.342,1.393-0.913C37.663,16.36,37.325,15.463,36.561,15.12z"/>
	</g>
</g>
<g>
	<g>
		<path fill="#E01F4C" d="M35.75-10.643c-0.004-0.014-0.019-0.038-0.026-0.05c-0.434-0.719-1.37-0.949-2.093-0.515
			c-0.715,0.432-0.943,1.362-0.517,2.081c0.281,0.485,0.791,0.755,1.315,0.755c0.251,0,0.51-0.063,0.746-0.198
			C35.906-8.984,36.165-9.913,35.75-10.643z"/>
	</g>
</g>
<g>
	<g>
		<path fill="#E01F4C" d="M39.885,3.039l-0.004-0.015c-0.049-0.839-0.768-1.472-1.608-1.421c-0.837,0.05-1.477,0.776-1.431,1.615
			c0.05,0.809,0.723,1.433,1.521,1.433c0.03,0,0.061,0,0.092-0.002C39.292,4.598,39.931,3.877,39.885,3.039z"/>
	</g>
</g>
<g>
	<g>
		<path fill="#E01F4C" d="M37.839-6.346l-1.419,0.55l1.419-0.553c-0.305-0.784-1.188-1.17-1.971-0.864
			c-0.784,0.306-1.172,1.189-0.867,1.971c0.004,0.005,0.011,0.024,0.015,0.03c0.236,0.591,0.807,0.949,1.408,0.949
			c0.186,0,0.38-0.034,0.563-0.108C37.767-4.682,38.143-5.566,37.839-6.346z"/>
	</g>
</g>
<g>
	<g>
		<path fill="#E01F4C" d="M39.238-1.711c0-0.009-0.008-0.034-0.008-0.045c-0.189-0.818-1.004-1.33-1.818-1.145
			c-0.821,0.187-1.331,0.999-1.148,1.816c0.152,0.713,0.779,1.204,1.483,1.204c0.103,0,0.205-0.012,0.309-0.032
			C38.881-0.083,39.409-0.887,39.238-1.711z"/>
	</g>
</g>
<g>
	<g>
		<path fill="#E01F4C" d="M37.831,10.714c-0.814-0.21-1.644,0.277-1.849,1.092c-0.225,0.812,0.255,1.648,1.064,1.869
			c0.134,0.034,0.267,0.054,0.403,0.054c0.67,0,1.278-0.449,1.465-1.122c0.004-0.008,0.008-0.027,0.012-0.034
			C39.132,11.756,38.645,10.923,37.831,10.714z"/>
	</g>
</g>
<g>
	<g>
		<path fill="#E01F4C" d="M-18.346-3.59c-0.818-0.198-1.64,0.304-1.837,1.12l-0.004,0.015c-0.198,0.816,0.306,1.632,1.122,1.83
			c0.12,0.028,0.24,0.042,0.356,0.042c0.688,0,1.314-0.472,1.483-1.169C-17.028-2.568-17.53-3.392-18.346-3.59z"/>
	</g>
</g>
<g>
	<g>
		<path fill="#E01F4C" d="M-16.682-7.86c-0.774-0.326-1.666,0.04-1.991,0.814l-0.004,0.011c-0.327,0.774,0.034,1.667,0.81,1.994
			c0.192,0.082,0.392,0.12,0.59,0.12c0.593,0,1.158-0.35,1.404-0.93l0.007-0.017C-15.542-6.645-15.908-7.535-16.682-7.86z"/>
	</g>
</g>
<g>
	<g>
		<path fill="#E01F4C" d="M-17.26,11.162c-0.187-0.819-1.002-1.333-1.82-1.146c-0.82,0.186-1.333,1-1.147,1.82
			c0.002,0.008,0.006,0.028,0.008,0.036c0.169,0.696,0.793,1.164,1.481,1.164c0.118,0,0.238-0.012,0.358-0.038
			C-17.564,12.8-17.063,11.979-17.26,11.162z"/>
	</g>
</g>
<g>
	<g>
		<path fill="#E01F4C" d="M-13.953,19.138c-0.434-0.715-1.37-0.951-2.088-0.518c-0.719,0.438-0.951,1.37-0.518,2.093
			c0.004,0.007,0.016,0.022,0.019,0.03c0.288,0.464,0.786,0.719,1.295,0.719c0.274,0,0.552-0.072,0.801-0.229
			C-13.73,20.789-13.509,19.853-13.953,19.138z"/>
	</g>
</g>
<g>
	<g>
		<path fill="#E01F4C" d="M-17.928,6.868c-0.061-0.839-0.792-1.469-1.63-1.406c-0.837,0.061-1.466,0.79-1.405,1.628l0.002,0.016
			c0.059,0.801,0.725,1.402,1.514,1.402c0.038,0,0.076,0,0.114-0.004C-18.495,8.442-17.867,7.705-17.928,6.868z"/>
	</g>
</g>
<g>
	<g>
		<path fill="#E01F4C" d="M-19.299,0.889c-0.835-0.074-1.575,0.544-1.649,1.381c0,0.007-0.002,0.03-0.004,0.038
			c-0.061,0.837,0.569,1.571,1.406,1.632c0.04,0.003,0.076,0.003,0.114,0.003c0.79,0,1.457-0.606,1.516-1.405
			C-17.842,1.702-18.462,0.963-19.299,0.889z"/>
	</g>
</g>
<g>
	<g>
		<path fill="#E01F4C" d="M4.479-23.79c-0.175-0.822-0.981-1.347-1.805-1.172L2.622-24.95c-0.818,0.194-1.32,1.016-1.126,1.832
			c0.167,0.7,0.791,1.169,1.479,1.169c0.114,0,0.23-0.013,0.346-0.04C4.134-22.169,4.651-22.972,4.479-23.79z"/>
	</g>
</g>
<g>
	<g>
		<path fill="#E01F4C" d="M-4.149-20.828c-0.418-0.729-1.351-0.979-2.077-0.56c-0.015,0.01-0.042,0.025-0.057,0.035
			c-0.713,0.443-0.932,1.379-0.489,2.094c0.287,0.464,0.786,0.719,1.295,0.719c0.27,0,0.544-0.072,0.79-0.223
			C-3.975-19.187-3.733-20.107-4.149-20.828z"/>
	</g>
</g>
<g>
	<g>
		<path fill="#E01F4C" d="M0.048-22.641c-0.295-0.787-1.171-1.187-1.959-0.89c-0.015,0.004-0.044,0.017-0.059,0.023
			c-0.778,0.319-1.147,1.21-0.825,1.986c0.241,0.588,0.81,0.941,1.407,0.941c0.19,0,0.382-0.034,0.569-0.11
			C-0.047-20.994,0.341-21.863,0.048-22.641z"/>
	</g>
</g>
<g>
	<g>
		<path fill="#E01F4C" d="M-8.018-18.382c-0.537-0.646-1.495-0.736-2.142-0.2l-0.023,0.019c-0.643,0.544-0.721,1.502-0.179,2.146
			c0.3,0.356,0.73,0.539,1.162,0.539c0.348,0,0.696-0.118,0.983-0.36C-7.569-16.777-7.482-17.735-8.018-18.382z"/>
	</g>
</g>
<g>
	<g>
		<path fill="#E01F4C" d="M-11.444-15.343c-0.629-0.555-1.592-0.495-2.147,0.137c-0.002,0.002-0.015,0.018-0.019,0.021
			c-0.548,0.634-0.476,1.584,0.156,2.136c0.287,0.251,0.643,0.373,0.997,0.373c0.426,0,0.85-0.177,1.151-0.519
			C-10.751-13.827-10.813-14.789-11.444-15.343z"/>
	</g>
</g>
<g>
	<g>
		<path fill="#E01F4C" d="M-15.925,15.28c-0.318-0.78-1.204-1.156-1.984-0.837c-0.778,0.312-1.153,1.202-0.837,1.979
			c0.003,0.007,0.011,0.026,0.013,0.03c0.244,0.586,0.81,0.936,1.406,0.936c0.194,0,0.394-0.038,0.585-0.118
			C-15.965,16.946-15.6,16.057-15.925,15.28z"/>
	</g>
</g>
<g>
	<g>
		<path fill="#E01F4C" d="M-14.363-11.814c-0.713-0.443-1.651-0.223-2.096,0.491l-0.008,0.013c-0.443,0.713-0.219,1.646,0.495,2.088
			c0.248,0.154,0.525,0.229,0.797,0.229c0.512,0,1.014-0.259,1.303-0.725C-13.43-10.432-13.65-11.369-14.363-11.814z"/>
	</g>
</g>
<g>
	<g>
		<path fill="#E01F4C" d="M47.433,42.609h-2.412c-0.008-0.008-0.015-0.023-0.022-0.03L19.807,5.201
			c-0.524-0.784-1.277-1.362-2.138-1.677v-4.242l7.601-4.774c0.479-0.298,0.75-0.837,0.708-1.396
			c-0.038-0.563-0.389-1.056-0.898-1.284l-8.315-3.683c-0.472-0.207-1.016-0.166-1.445,0.116c-0.434,0.281-0.692,0.761-0.692,1.274
			v8.882c0,0.017,0,0.033,0,0.05v5.056c-0.86,0.315-1.613,0.894-2.142,1.677L2.166,20.511l-2.454-3.641
			c-0.822-1.221-2.191-1.947-3.662-1.947c-1.472,0-2.842,0.727-3.663,1.947L-24.96,42.609h-2.473c-0.84,0-1.521,0.685-1.521,1.521
			c0,0.841,0.681,1.521,1.521,1.521h3.277c0.002,0,0.002,0,0.004,0c0,0,0,0,0.002,0h71.582c0.841,0,1.521-0.681,1.521-1.521
			C48.954,43.294,48.273,42.609,47.433,42.609z M17.669-8.125l3.561,1.577l-3.561,2.237V-8.125z M-21.291,42.609l16.202-24.038
			c0.258-0.385,0.675-0.605,1.139-0.605c0.464,0,0.879,0.221,1.139,0.605l3.143,4.659l-5.395,8.004
			c-0.47,0.7-0.287,1.644,0.411,2.115c0.696,0.472,1.643,0.285,2.111-0.41L15.006,6.902c0.259-0.384,0.678-0.605,1.142-0.605
			s0.879,0.221,1.138,0.605l24.068,35.708H-21.291z"/>
	</g>
</g>
<g>
	<g>
		<circle fill="#E01F4C" cx="-7.651" cy="37.729" r="1.521"/>
	</g>
</g>
</svg>
