<?xml version="1.0" encoding="utf-8"?>
<!-- Generator: Adobe Illustrator 16.0.3, SVG Export Plug-In . SVG Version: 6.00 Build 0)  -->
<!DOCTYPE svg PUBLIC "-//W3C//DTD SVG 1.1//EN" "http://www.w3.org/Graphics/SVG/1.1/DTD/svg11.dtd">
<svg version="1.1" id="Layer_1" xmlns="http://www.w3.org/2000/svg" xmlns:xlink="http://www.w3.org/1999/xlink" x="0px" y="0px"
	 width="80px" height="80px" viewBox="-30 -30 80 80" enable-background="new -30 -30 80 80" xml:space="preserve">
<g>
	<g>
		<g>
			<path fill="#E01F4C" d="M-0.29,8.395c0.371,0,0.759-0.032,1.13-0.081C3.356,7.958,5.518,6.442,7.292,3.83
				c4.452,8.115,6,14.503,6.03,14.613c0.163,0.692,0.775,1.211,1.502,1.245h0.08c0.696,0,1.31-0.439,1.532-1.098
				c1.192-3.194,2.774-6.229,4.696-9.035c1.885,3.597,4.288,4.808,6.077,5.144c0.454,0.084,0.905,0.129,1.37,0.129
				c2.6,0,5.374-1.34,7.663-3.724c4.228-4.435,5.794-16.565,2.937-22.758c-0.371-0.808-1.34-1.162-2.146-0.776
				c-0.099,0.049-0.193,0.113-0.287,0.178c-2.922,2.195-5.567,2.872-8.356,3.582c-2.422,0.613-4.889,1.258-7.405,2.903
				c-2.838,1.886-4.529,4.613-4.529,7.322c0,1.468,0.499,3.468,2.497,5.468c-1.438,2-2.709,4.113-3.792,6.321
				c-1.514-4.289-3.434-8.418-5.708-12.371c3.756-1.918,6.049-4.467,6.761-7.58c1.093-4.742-1.794-9.048-3.6-11.179
				c-3.033-3.58-7.339-4.613-11.903-5.708c-4.034-0.969-8.21-1.968-11.631-4.872c-0.371-0.322-0.87-0.45-1.354-0.354
				c-0.482,0.096-0.888,0.403-1.113,0.821c-4.467,8.437-2.178,24.501,2.791,30.357C-7.387,6.297-3.691,8.395-0.29,8.395z
				 M22.775-3.073c2.051-1.355,4.162-1.904,6.418-2.484c2.339-0.598,4.938-1.275,7.697-2.919c1.498,5.693-0.182,14.419-2.986,17.354
				c-1.502,1.565-3.871,3.083-6.081,2.663c-2.255-0.436-3.663-2.84-4.435-4.774c-0.016-0.017-0.03-0.049-0.046-0.066
				c1.854-2.144,4.079-4.111,6.74-5.434c0.806-0.388,1.131-1.354,0.741-2.163c-0.386-0.806-1.354-1.127-2.161-0.742
				c0,0-0.015,0-0.015,0.017c-3.05,1.516-5.566,3.726-7.663,6.128C20.244,3.684,19.68,2.7,19.68,1.572
				C19.68-0.057,20.838-1.799,22.775-3.073z M-11.322-24.59c3.614,2.435,7.646,3.404,11.275,4.274
				c4.21,0.999,7.839,1.871,10.21,4.645c2.418,2.855,3.485,5.903,2.917,8.371c-0.499,2.195-2.287,4.049-5.289,5.533
				C4.244-7.429-0.08-12.558-5.048-17.01c-0.644-0.611-1.677-0.579-2.274,0.082c-0.611,0.645-0.579,1.678,0.081,2.274
				c0.017,0.017,0.032,0.032,0.064,0.049C-1.708-9.718,2.42-4.331,5.485,0.653C4.049,3.33,2.355,4.846,0.405,5.12
				c-2.548,0.371-5.726-1.402-8.533-4.692C-12.096-4.234-14.096-16.929-11.322-24.59z"/>
			<path fill="#E01F4C" d="M48.534,31.104c-0.079-0.178-0.178-0.322-0.291-0.436l-0.371-0.371c-3.209-3.224-4.979-5.002-9.256-3.776
				l-14.101,3.954c0-0.094,0.016-0.192,0.016-0.306c0-2.809-1.786-5.646-5.207-5.646c-2.452,0-4.242,0-5.76,0.016
				c-2.24,0-3.869,0.015-6.161,0l-0.339-0.322c-1.757-1.691-4.692-4.515-11.661-4.515h-7.983v-1.611c0-0.89-0.727-1.616-1.614-1.616
				h-12.904c-0.886,0-1.612,0.727-1.612,1.616v24.192c0,0.889,0.727,1.611,1.612,1.611h12.904c0.888,0,1.614-0.723,1.614-1.611
				v-0.746c2.967,1.003,5.58,1.923,7.886,2.729C3.535,47.153,8.18,48.75,12.501,48.75c5.423,0,10.323-2.517,21.128-8.178
				c3.776-1.982,8.483-4.435,14.198-7.308C48.614,32.864,48.939,31.896,48.534,31.104z M-15.805,40.651h-9.678V19.688h9.678V40.651z
				 M32.1,37.7c-18.338,9.611-18.338,9.611-35.744,3.52c-2.564-0.904-5.533-1.938-8.935-3.081V22.911h7.951
				c5.646,0,7.92,2.18,9.404,3.61c0.355,0.341,0.662,0.647,0.969,0.87c0.272,0.228,0.628,0.341,0.984,0.341
				c2.613,0.016,4.339,0.016,6.775,0.016c1.514,0,3.353-0.016,5.82-0.016c1.922,0,1.982,2.18,1.982,2.422
				c0.016,0.628-0.174,1.257-0.545,1.771c-0.34,0.438-0.87,0.681-1.438,0.646H1.985c-0.806,0-1.533,0.579-1.644,1.37
				c-0.146,1.003,0.628,1.858,1.597,1.858h17.371c1.435,0.03,2.809-0.568,3.758-1.665c0.08,0,0.178,0,0.258-0.016l16.132-4.519
				c2.044-0.579,2.771-0.303,4.886,1.764C39.486,33.813,35.438,35.944,32.1,37.7z"/>
		</g>
	</g>
</g>
</svg>
