<?xml version="1.0" encoding="utf-8"?>
<!-- Generator: Adobe Illustrator 16.0.3, SVG Export Plug-In . SVG Version: 6.00 Build 0)  -->
<!DOCTYPE svg PUBLIC "-//W3C//DTD SVG 1.1//EN" "http://www.w3.org/Graphics/SVG/1.1/DTD/svg11.dtd">
<svg version="1.1" id="Layer_1" xmlns="http://www.w3.org/2000/svg" xmlns:xlink="http://www.w3.org/1999/xlink" x="0px" y="0px"
	 width="80px" height="80px" viewBox="-30 -30 80 80" enable-background="new -30 -30 80 80" xml:space="preserve">
<g>
	<g>
		<path fill="#E01F4C" d="M48.514,37.964c-3.153-7.774-10.451-13.173-18.747-13.955c-1.838-3.355-4.499-6.191-7.74-8.243
			c-3.157-2.002-6.749-3.172-10.471-3.428V3.774h6.178c12.384,0,22.465-10.079,22.465-22.465v-7.73c0-0.86-0.698-1.556-1.556-1.556
			H30.91c-9.486,0-17.623,5.914-20.91,14.249c-3.287-8.335-11.421-14.249-20.91-14.249h-7.73c-0.86,0-1.556,0.696-1.556,1.556v7.73
			c0,12.388,10.077,22.465,22.465,22.465h6.175v8.563c-3.723,0.256-7.315,1.426-10.47,3.428c-3.243,2.052-5.904,4.888-7.738,8.243
			c-8.299,0.782-15.595,6.181-18.75,13.955c-0.905,2.23-0.638,4.763,0.713,6.771c1.369,2.028,3.645,3.241,6.091,3.241h63.417
			c2.448,0,4.725-1.213,6.093-3.241C49.15,42.727,49.418,40.194,48.514,37.964z M11.556-5.512c0-10.672,8.683-19.354,19.354-19.354
			h6.177v6.175c0,10.67-8.686,19.354-19.354,19.354h-3.978l16.956-16.958c0.61-0.606,0.61-1.592,0-2.2
			c-0.606-0.608-1.594-0.606-2.196,0L11.556-1.537V-5.512z M-10.713-16.294L6.245,0.663H2.27c-10.672,0-19.354-8.682-19.354-19.354
			v-6.175h6.175c10.672,0,19.354,8.682,19.354,19.354v3.973L-8.513-18.495c-0.606-0.606-1.592-0.606-2.2,0
			C-11.319-17.886-11.319-16.901-10.713-16.294z M45.22,42.997c-0.801,1.189-2.078,1.868-3.512,1.868h-63.417
			c-1.43,0-2.709-0.679-3.51-1.868c-0.785-1.167-0.934-2.574-0.412-3.866c2.816-6.939,9.461-11.683,16.929-12.083
			c0.561-0.03,1.062-0.362,1.31-0.861C-4.086,19.533,2.577,15.396,10,15.396c6.558,0,12.517,3.226,16.098,8.564
			c-1.613,0.11-3.203,0.393-4.751,0.838c-0.823,0.24-1.301,1.103-1.061,1.926c0.198,0.683,0.816,1.125,1.495,1.125
			c0.145,0,0.29-0.02,0.435-0.064c1.754-0.508,3.576-0.767,5.422-0.767l1.063,0.03c7.47,0.4,14.111,5.144,16.93,12.083
			C46.154,40.423,46.005,41.83,45.22,42.997z"/>
	</g>
</g>
<g>
	<g>
		<path fill="#E01F4C" d="M17.626,27.944c-0.465-0.725-1.43-0.935-2.15-0.47c-0.259,0.164-0.519,0.34-0.767,0.515
			c-0.705,0.492-0.873,1.465-0.377,2.166c0.305,0.431,0.785,0.663,1.273,0.663c0.309,0,0.621-0.091,0.893-0.281
			c0.217-0.153,0.438-0.306,0.659-0.446C17.878,29.629,18.088,28.664,17.626,27.944z"/>
	</g>
</g>
</svg>
