<?xml version="1.0" encoding="utf-8"?>
<!-- Generator: Adobe Illustrator 16.0.3, SVG Export Plug-In . SVG Version: 6.00 Build 0)  -->
<!DOCTYPE svg PUBLIC "-//W3C//DTD SVG 1.1//EN" "http://www.w3.org/Graphics/SVG/1.1/DTD/svg11.dtd">
<svg version="1.1" id="Capa_1" xmlns="http://www.w3.org/2000/svg" xmlns:xlink="http://www.w3.org/1999/xlink" x="0px" y="0px"
	 width="80px" height="80px" viewBox="-30 -30 80 80" enable-background="new -30 -30 80 80" xml:space="preserve">
<g>
	<g>
		<path fill="#E01F4C" d="M37.589-4.608c0.605-1.489,0.914-3.066,0.914-4.698c0-0.332-0.016-0.667-0.038-0.994
			c-0.05-0.611-0.587-1.066-1.196-1.019c-0.609,0.047-1.066,0.583-1.021,1.192c0.022,0.272,0.03,0.548,0.03,0.821
			c0,1.661-0.381,3.25-1.143,4.721c-0.145,0.276-0.167,0.598-0.061,0.887c0.106,0.292,0.327,0.526,0.613,0.646
			c4.334,1.832,7.133,6.058,7.133,10.763c0,6.258-4.894,11.376-11.144,11.658c-0.479,0.022-0.892,0.351-1.021,0.815
			c-0.823,2.993-4.151,5.172-7.899,5.172c-1.79,0-3.496-0.48-4.897-1.356l3.668-5.789c0.255-0.403,0.388-0.853,0.399-1.302
			c0.022-0.747-0.282-1.485-0.884-2.012c-1.021-0.891-2.566-0.83-3.519,0.13l-2.75,2.788l0.898-6.646
			c0.092-0.702-0.11-1.42-0.56-1.971c-0.393-0.48-0.948-0.802-1.558-0.906c-0.084-0.016-0.172-0.027-0.259-0.033l-0.99-0.066
			c-0.495-0.034-0.968,0.074-1.377,0.29C10.249,8.84,9.742,9.501,9.6,10.313l-0.869,4.932l-0.868,4.933l-5.359-6.589
			c-0.179-0.221-0.388-0.404-0.619-0.549c-0.002,0-0.002-0.004-0.004-0.004c-0.025-0.019-0.051-0.026-0.076-0.042
			c-0.33-0.194-0.697-0.312-1.076-0.343c-0.011-0.004-0.024-0.004-0.036-0.004c-0.055-0.003-0.112-0.007-0.167-0.011
			c-0.343,0-0.688,0.061-1.013,0.198l-1.036,0.438c-0.688,0.289-1.215,0.864-1.447,1.573c-0.232,0.708-0.145,1.478,0.238,2.121
			l4.388,7.313c-1.309,0.697-2.841,1.078-4.413,1.078c-3.751,0-7.074-2.179-7.901-5.172c-0.129-0.465-0.541-0.793-1.021-0.815
			c-6.25-0.282-11.144-5.4-11.144-11.658c0-4.706,2.801-8.931,7.135-10.763c0.286-0.12,0.507-0.354,0.611-0.646
			c0.105-0.29,0.084-0.611-0.057-0.887c-0.762-1.47-1.148-3.06-1.148-4.721c0-5.677,4.62-10.297,10.296-10.297
			c1.583,0,3.102,0.351,4.515,1.042c0.295,0.145,0.64,0.15,0.94,0.015c0.301-0.135,0.528-0.396,0.615-0.714
			c1.238-4.427,5.315-7.52,9.916-7.52c4.599,0,8.674,3.093,9.916,7.52c0.084,0.318,0.313,0.581,0.609,0.714
			c0.305,0.135,0.647,0.129,0.944-0.015c1.417-0.691,2.933-1.042,4.517-1.042c3.794,0,7.271,2.08,9.072,5.424
			c0.29,0.541,0.96,0.743,1.501,0.451s0.742-0.963,0.453-1.504c-2.19-4.064-6.414-6.591-11.026-6.591
			c-1.5,0-2.955,0.259-4.334,0.771C19.795-25.788,15.171-29,10-29c-5.168,0-9.794,3.212-11.653,7.949
			c-1.382-0.512-2.833-0.771-4.334-0.771c-6.901,0-12.515,5.616-12.515,12.517c0,1.632,0.307,3.208,0.914,4.698
			c-4.564,2.384-7.457,7.103-7.457,12.319c0,7.187,5.429,13.113,12.496,13.821c1.39,3.596,5.294,6.041,9.792,6.041
			c1.973,0,3.904-0.488,5.553-1.395l0.55,0.922c0.752,1.249,1.063,2.73,0.876,4.171c-0.162,1.245-0.362,2.707-0.613,4.147
			c-0.106,0.602,0.297,1.177,0.901,1.283c0.605,0.106,1.181-0.297,1.285-0.902c0.261-1.479,0.463-2.975,0.628-4.243
			c0.25-1.935-0.166-3.923-1.173-5.599l-6.079-10.135c-0.072-0.118-0.051-0.232-0.032-0.293c0.017-0.054,0.068-0.16,0.196-0.214
			l1.036-0.434c0.143-0.062,0.311-0.016,0.41,0.103l5.917,7.278c0.015,0.016,0.032,0.034,0.047,0.054
			c0.221,0.251,0.494,0.426,0.794,0.525c0.32,0.106,0.668,0.122,1.013,0.03c0.003,0,0.007,0,0.011,0l0,0l0,0
			c0.335-0.088,0.626-0.259,0.855-0.495c0.008-0.008,0.017-0.019,0.027-0.03c0.007-0.008,0.015-0.016,0.022-0.023
			c0.217-0.247,0.368-0.552,0.429-0.895l1.889-10.732c0.031-0.178,0.194-0.301,0.37-0.29l0.99,0.066
			c0.133,0.01,0.213,0.083,0.251,0.129c0.034,0.044,0.092,0.138,0.076,0.269l-1.059,7.842c-0.016,0.096-0.02,0.19-0.016,0.29
			c0.016,0.666,0.396,1.279,1.014,1.584c0.045,0.022,0.091,0.038,0.133,0.061c0.225,0.084,0.461,0.13,0.693,0.122
			c0.469-0.004,0.926-0.19,1.269-0.537l3.599-3.645c0.064-0.061,0.141-0.099,0.225-0.099c0.004-0.004,0.008-0.004,0.012-0.004
			s0.004,0,0.004,0c0.064-0.004,0.129,0.011,0.183,0.045c0.022,0.012,0.038,0.027,0.058,0.042c0.133,0.114,0.159,0.305,0.064,0.45
			l-4.883,7.712c-1.028,1.619-1.501,3.568-1.337,5.484c0.465,5.37,1.269,11.422,4.772,16.56H1.788
			c1.253-1.854,2.226-3.972,2.956-6.402c0.175-0.59-0.158-1.211-0.747-1.386c-0.586-0.176-1.206,0.16-1.381,0.746
			c-0.887,2.971-2.167,5.4-3.909,7.427c-0.282,0.332-0.347,0.796-0.166,1.188C-1.278,48.749-0.884,49-0.45,49h20.9
			c0.434,0,0.826-0.251,1.005-0.647c0.184-0.393,0.118-0.856-0.163-1.185c-4.277-4.985-5.157-11.46-5.648-17.143
			c-0.126-1.432,0.229-2.891,0.998-4.102l0.03-0.05c1.76,1.104,3.877,1.699,6.086,1.699c4.494,0,8.402-2.445,9.788-6.041
			c7.069-0.708,12.5-6.635,12.5-13.821C45.046,2.495,42.151-2.224,37.589-4.608z"/>
	</g>
</g>
</svg>
