<?xml version="1.0" encoding="utf-8"?>
<!-- Generator: Adobe Illustrator 16.0.3, SVG Export Plug-In . SVG Version: 6.00 Build 0)  -->
<!DOCTYPE svg PUBLIC "-//W3C//DTD SVG 1.1//EN" "http://www.w3.org/Graphics/SVG/1.1/DTD/svg11.dtd">
<svg version="1.1" id="Vrstva_1" xmlns="http://www.w3.org/2000/svg" xmlns:xlink="http://www.w3.org/1999/xlink" x="0px" y="0px"
	 width="129.25px" height="75.5px" viewBox="38.475 0 129.25 75.5" enable-background="new 38.475 0 129.25 75.5"
	 xml:space="preserve">
<g>
	<path fill="#FFFFFF" d="M135.574,21.582c-0.594-2.299-3.561-3.612-8.121-3.612c-2.455,0-5.223,0.376-7.996,1.101
		c-6.373,1.661-12.492,6.067-14.383,7.514c-3.466-1.691-5.824-6.387-5.664-9.766c0.07-1.564,0.751-2.992,1.91-4.045
		c1.161-1.054,2.666-1.587,4.222-1.521c3.232,0.156,5.736,2.893,5.589,6.115c-0.032,0.678,0.483,1.246,1.157,1.268
		c0.668,0.039,1.248-0.475,1.279-1.152c0.215-4.561-3.334-8.438-7.91-8.652c-2.216-0.101-4.337,0.654-5.983,2.148
		c-1.64,1.484-2.601,3.516-2.704,5.725c-0.177,3.787,1.982,8.67,5.617,11.23c-0.428,0.184-0.849,0.355-1.209,0.488
		c-1.741-1.611-7.427-6.582-13.627-8.829c-3.444-1.261-6.918-1.952-9.782-1.952c-3.501,0-5.807,1.046-6.501,2.938
		c-1.45,3.957,5.004,8.732,11.816,11.206c1.895,0.69,4.143,1.043,6.684,1.043l0,0c4.805,0,9.333-1.229,10.902-1.709
		c1.072,0.763,1.825,1.748,2.681,2.854c0.64,0.845,1.338,1.747,2.245,2.655c-0.232,0.031-0.469,0.068-0.697,0.107
		c-0.979,0.116-1.907,0.246-2.635,0.413c-1.922-1.166-6.44-3.815-8.188-3.899c-2.416-0.121-4.445,1.732-4.558,4.117
		c-0.052,1.166,0.349,2.271,1.13,3.137c0.787,0.854,1.857,1.354,3.019,1.416c0.047,0,0.097,0,0.153,0
		c1.702,0,6.089-1.434,7.964-2.094c2.95,2.104,2.083,7.521,2.075,7.573c-0.112,0.664,0.331,1.291,0.997,1.406
		c0.07,0.001,0.137,0.019,0.207,0.019c0.585,0,1.098-0.416,1.197-1.01c0.047-0.259,0.869-5.322-1.646-8.592
		c0.203-0.025,0.405-0.064,0.612-0.096c1.071-0.127,2.089-0.282,2.879-0.479c1.929,1.176,6.433,3.828,8.174,3.906
		c0.07,0,0.14,0.009,0.208,0.009c2.329,0,4.239-1.812,4.35-4.146c0.057-1.137-0.349-2.271-1.131-3.125
		c-0.781-0.854-1.854-1.354-3.018-1.411c-0.048,0-0.096,0-0.15,0c-1.713,0-6.174,1.476-8.021,2.108
		c-1.418-1.145-2.34-2.344-3.225-3.486c-0.629-0.819-1.232-1.604-1.965-2.323c0.625-0.271,1.25-0.566,1.792-0.844
		c1.775,0.724,7.414,2.819,13.019,2.819c1.604,0,3.092-0.174,4.422-0.518C129.77,29.807,136.652,25.658,135.574,21.582z
		 M94.021,39.489h-0.037c-0.513-0.022-0.984-0.258-1.331-0.625c-0.344-0.375-0.52-0.875-0.494-1.375
		c0.046-1.031,0.885-1.813,1.912-1.813c0.028,0,0.06,0,0.092,0c0.635,0.022,2.882,1.137,5.198,2.463
		C97.212,38.823,94.868,39.489,94.021,39.489z M116.738,36.302h0.037c0.512,0.039,0.984,0.261,1.329,0.625
		c0.345,0.391,0.524,0.875,0.496,1.385c-0.046,1.041-0.94,1.857-2.003,1.818c-0.637-0.038-2.882-1.151-5.199-2.463
		C113.549,36.968,115.895,36.302,116.738,36.302z M89.971,30.393c-2.256,0-4.221-0.304-5.845-0.887
		c-7.182-2.614-10.933-6.536-10.364-8.098c0.296-0.808,1.951-1.334,4.21-1.334c2.584,0,5.763,0.642,8.947,1.793
		c4.767,1.733,9.362,5.342,11.695,7.353C96.582,29.729,93.311,30.393,89.971,30.393z M122.143,29.283
		c-1.13,0.297-2.412,0.446-3.807,0.446c-4.034,0-8.211-1.233-10.592-2.082c2.506-1.784,7.416-4.942,12.332-6.223
		c2.578-0.667,5.127-1.031,7.377-1.031c3.64,0,5.539,0.937,5.768,1.796C133.637,23.799,129.533,27.35,122.143,29.283z"/>
</g>
<g>
	<path fill="#FFFFFF" d="M61.148,62.255c0,3.828-2.734,5.959-5.469,5.959c-1.582,0-2.83-0.637-3.867-1.708v0.589
		c0,0.551-0.45,1.012-1.036,1.012c-0.566,0-1.018-0.461-1.018-1.012V52.479c0-0.586,0.451-1.036,1.018-1.036
		c0.586,0,1.036,0.45,1.036,1.036v5.519c1.037-1.094,2.285-1.719,3.867-1.719C58.414,56.278,61.148,58.427,61.148,62.255z
		 M59.091,62.255c0-2.656-1.557-4.063-3.705-4.063c-1.468,0-2.694,0.721-3.574,1.684v4.729c0.88,0.971,2.105,1.693,3.574,1.693
		C57.535,66.298,59.091,64.911,59.091,62.255z"/>
	<path fill="#FFFFFF" d="M73.724,66.396c0,0.352-0.27,0.646-0.587,0.82c-0.993,0.57-1.987,0.998-3.961,0.998
		c-3.675,0-5.845-2.182-5.845-5.959c0-3.047,1.646-5.977,5.396-5.977c3.478,0,5.376,2.688,5.376,5.67
		c0,0.574-0.404,1.012-1.04,1.012h-7.657c0.228,2.029,1.514,3.338,3.955,3.338c1.359,0,2.219-0.266,3.053-0.691
		c0.133-0.07,0.242-0.101,0.402-0.101C73.296,65.506,73.724,65.876,73.724,66.396z M65.407,61.305h6.661
		c-0.134-2.339-1.895-3.292-3.341-3.292C67.282,58.013,65.543,58.966,65.407,61.305z"/>
	<path fill="#FFFFFF" d="M86.589,66.396c0,0.352-0.272,0.646-0.588,0.82c-0.989,0.57-1.989,0.998-3.949,0.998
		c-3.684,0-5.854-2.182-5.854-5.959c0-3.047,1.649-5.977,5.397-5.977c3.478,0,5.383,2.688,5.383,5.67
		c0,0.574-0.411,1.012-1.05,1.012h-7.65c0.223,2.029,1.512,3.338,3.949,3.338c1.354,0,2.213-0.266,3.053-0.691
		c0.135-0.07,0.252-0.101,0.407-0.101C86.16,65.506,86.589,65.876,86.589,66.396z M78.279,61.305h6.67
		c-0.146-2.339-1.908-3.292-3.352-3.292S78.416,58.966,78.279,61.305z"/>
	<path fill="#FFFFFF" d="M100.051,60.692v6.402c0,0.551-0.479,1.012-1.04,1.012c-0.566,0-1.016-0.461-1.016-1.012v-6.168
		c0-1.719-0.729-2.758-2.496-2.758c-1.615,0-2.793,1.039-3.698,2.17v6.756c0,0.551-0.479,1.012-1.032,1.012
		c-0.574,0-1.016-0.461-1.016-1.012V57.43c0-0.589,0.441-1.034,1.016-1.034c0.553,0,1.032,0.445,1.032,1.034v0.919
		c0.956-1.027,2.192-2.07,4.202-2.07C98.582,56.278,100.051,58.278,100.051,60.692z"/>
	<path fill="#FFFFFF" d="M112.561,60.72v6.375c0,0.551-0.479,1.012-1.045,1.012c-0.561,0-1.018-0.461-1.018-1.012v-0.589
		c-0.816,0.827-2.115,1.708-4.252,1.708c-1.961,0-3.68-1.27-3.68-3.381c0-2.109,1.68-3.639,5.197-3.639h2.734v-0.189
		c0-1.994-0.99-2.784-3.025-2.784c-1.271,0-2.172,0.267-3.002,0.536c-0.102,0.021-0.209,0.047-0.303,0.047
		c-0.445,0-0.826-0.363-0.826-0.848c0-0.389,0.199-0.701,0.59-0.857c1.057-0.467,2.305-0.82,3.906-0.82
		C111.127,56.278,112.561,58.505,112.561,60.72z M110.498,64.717v-1.878h-2.463c-2.117,0-3.402,0.484-3.402,1.766
		c0,0.971,0.555,1.803,2.387,1.803C108.426,66.407,109.73,65.606,110.498,64.717z"/>
	<path fill="#FFFFFF" d="M122.354,67.021c0,0.391-0.209,0.625-0.521,0.782c-0.545,0.25-1.145,0.411-1.875,0.411
		c-1.061,0-3.289-0.178-3.289-2.975v-6.971h-1.605c-0.26,0-0.43-0.193-0.43-0.428c0-0.146,0.063-0.273,0.199-0.391l3.074-3
		c0.061-0.058,0.207-0.203,0.379-0.203c0.258,0,0.428,0.203,0.428,0.464v1.802h2.564c0.488,0,0.867,0.381,0.867,0.863
		c0,0.504-0.379,0.893-0.867,0.893h-2.564v6.799c0,1.328,0.91,1.34,1.471,1.34c0.727,0,0.977-0.205,1.361-0.205
		C121.947,66.2,122.354,66.552,122.354,67.021z"/>
	<path fill="#FFFFFF" d="M124.49,63.804v-6.393c0-0.57,0.479-1.017,1.045-1.017c0.559,0,1.016,0.445,1.016,1.017v6.172
		c0,1.703,0.723,2.734,2.484,2.734c1.625,0,2.801-1.031,3.705-2.15v-6.756c0-0.57,0.477-1.017,1.037-1.017
		c0.564,0,1.02,0.445,1.02,1.017v9.647c0,0.586-0.453,1.046-1.02,1.046c-0.563,0-1.037-0.46-1.037-1.046v-0.918
		c-0.947,1.035-2.195,2.072-4.197,2.072C125.963,68.214,124.49,66.2,124.49,63.804z"/>
	<path fill="#FFFFFF" d="M145.064,57.294c0,0.586-0.453,0.975-1.041,0.975h-0.105c-1.494,0-2.713,0.807-3.5,1.973v6.854
		c0,0.551-0.473,1.011-1.043,1.011c-0.563,0-1.02-0.459-1.02-1.011v-9.665c0-0.564,0.457-1.034,1.02-1.034
		c0.57,0,1.043,0.47,1.043,1.034v0.958c0.814-1.067,1.988-2.108,3.547-2.108h0.109C144.635,56.278,145.064,56.731,145.064,57.294z"
		/>
	<path fill="#FFFFFF" d="M156.809,66.396c0,0.352-0.266,0.646-0.588,0.82c-0.992,0.57-1.98,0.998-3.955,0.998
		c-3.68,0-5.844-2.182-5.844-5.959c0-3.047,1.648-5.977,5.396-5.977c3.48,0,5.373,2.688,5.373,5.67c0,0.574-0.404,1.012-1.035,1.012
		h-7.658c0.225,2.029,1.51,3.338,3.951,3.338c1.359,0,2.219-0.266,3.053-0.691c0.133-0.07,0.244-0.101,0.404-0.101
		C156.383,65.506,156.809,65.876,156.809,66.396z M148.498,61.305h6.66c-0.133-2.339-1.893-3.292-3.34-3.292
		C150.373,58.013,148.631,58.966,148.498,61.305z"/>
</g>
</svg>
